<?xml version="1.0" encoding="utf-8"?>
<!-- Generator: Adobe Illustrator 25.2.1, SVG Export Plug-In . SVG Version: 6.00 Build 0)  -->
<svg version="1.1" id="Capa_1" xmlns="http://www.w3.org/2000/svg" xmlns:xlink="http://www.w3.org/1999/xlink" x="0px" y="0px"
	 viewBox="0 0 968 1593" style="enable-background:new 0 0 968 1593;" xml:space="preserve">
<style type="text/css">
	.st0{fill:none;stroke:#333399;stroke-width:10;stroke-miterlimit:10;}
	.st1{fill:none;stroke:#333399;stroke-width:15;stroke-miterlimit:10;}
	.st2{fill:none;stroke:#333399;stroke-width:20;stroke-miterlimit:10;}
</style>
<g>
	<path class="st0" d="M865.4,74c32.3,0,58.6,26.3,58.6,58.6v1352.9c0,32.3-26.3,58.6-58.6,58.6H95.6c-32.3,0-58.6-26.3-58.6-58.6
		V132.6C37,100.3,63.3,74,95.6,74H865.4 M865.4,64H95.6C57.7,64,27,94.7,27,132.6v1352.9c0,37.9,30.7,68.6,68.6,68.6h769.9
		c37.9,0,68.6-30.7,68.6-68.6V132.6C934,94.7,903.3,64,865.4,64L865.4,64z"/>
</g>
<g>
	<path class="st1" d="M827,192v1180H107V192H827 M837,182H97v1200h740V182L837,182z"/>
</g>
<path class="st2" d="M283,69c31.6,17.5,101.2,50.5,195.5,50.5c93,0,161.9-32.2,193.5-49.5"/>
<circle class="st1" cx="484" cy="1467.4" r="65.5"/>
</svg>
