<?xml version="1.0" encoding="utf-8"?>
<!-- Generator: Adobe Illustrator 25.2.1, SVG Export Plug-In . SVG Version: 6.00 Build 0)  -->
<svg version="1.1" id="Capa_1" xmlns="http://www.w3.org/2000/svg" xmlns:xlink="http://www.w3.org/1999/xlink" x="0px" y="0px"
	 viewBox="0 0 755.9 732.1" style="enable-background:new 0 0 755.9 732.1;" xml:space="preserve">
<style type="text/css">
	.st0{display:none;}
	.st1{display:inline;}
	.st2{display:none;fill:#FFFFFF;stroke:#000000;stroke-width:4;stroke-miterlimit:10;}
	.st3{fill:#7272B8;}
	.st4{fill:none;stroke:#7272B8;stroke-width:10;stroke-miterlimit:10;}
</style>
<g class="st0">
	<path class="st1" d="M655.6,265.4c36.2,0,65.6,29.4,65.6,65.6v390.7c0,36.2-29.4,65.6-65.6,65.6H196.8c-36.2,0-65.6-29.4-65.6-65.6
		V331c0-36.2,29.4-65.6,65.6-65.6H655.6 M655.6,261.4H196.8c-38.5,0-69.6,31.2-69.6,69.6v390.7c0,38.5,31.2,69.6,69.6,69.6h458.7
		c38.5,0,69.6-31.2,69.6-69.6V331C725.2,292.6,694,261.4,655.6,261.4L655.6,261.4z"/>
</g>
<path class="st2" d="M196.7,260.9c7.6-128.5,117.8-226.4,240.5-220.5c115,5.6,211.4,100.8,218,221"/>
<g>
	<path class="st3" d="M437.8,79.2L555,122.6l159.3,58.9c-0.1,139.9-31.3,272.4-88.2,373.8c-24.9,44.4-54,81.1-84.3,106.2
		c-28.8,23.9-57.7,36.7-83.7,37c-0.3,0-0.7,0-1,0c-25.8,0-54.8-12.2-83.9-35.2c-30.5-24.2-60.2-59.8-86-102.9
		c-58.8-98.3-93.7-227.9-98.7-365.6L437.8,79.2 M437.3,68.4c-86.4,40-172.8,80-259.1,120c9.1,311.9,165.5,520,278.9,520
		c0.4,0,0.8,0,1.1,0c114.1-1.4,268.2-216.1,266.1-533.9C628.6,139.1,533,103.8,437.3,68.4L437.3,68.4z"/>
</g>
<line class="st4" x1="150.2" y1="241.4" x2="24.2" y2="221.4"/>
<line class="st4" x1="167.2" y1="193.4" x2="33.2" y2="59.4"/>
<line class="st4" x1="197.2" y1="154.4" x2="169.2" y2="53.4"/>
</svg>
