<?xml version="1.0" encoding="utf-8"?>
<!-- Generator: Adobe Illustrator 25.2.1, SVG Export Plug-In . SVG Version: 6.00 Build 0)  -->
<svg version="1.1" id="Capa_1" xmlns="http://www.w3.org/2000/svg" xmlns:xlink="http://www.w3.org/1999/xlink" x="0px" y="0px"
	 viewBox="0 0 1362.7 1362.7" style="enable-background:new 0 0 1362.7 1362.7;" xml:space="preserve">
<style type="text/css">
	.st0{fill:none;stroke:#7272B8;stroke-width:20;stroke-miterlimit:10;}
</style>
<g>
	<path class="st0" d="M520.8,546.9c-7.1-4.6-21.2-15.2-26-33c-7.6-28.1,13.3-53.8,20-62c26-31.8,52.1-26.2,110-63
		c35-22.3,24.8-24,46-34c44.5-21,78.9-8.7,142-19c4.6-0.8,17.6-3,35-3.2c11.6-0.1,22.3,0.7,35,2.2c41.2,4.7,117.4,43,141,53
		c32.1,13.6,80.9,24.6,152,11c-7.3,144.3-14.7,288.7-22,433c-16.6,9.7-37.3,20.2-62,29c-30.8,11-58.7,16.4-81,19"/>
	<path class="st0" d="M608.8,398.9c1.9-1.3,4.8-3.7,6.6-7.6c0,0,1.1-2.5,1.4-5.4c2.6-24.7-37.8-53-62-65c-37.2-18.5-51.9-7.6-77-26
		c-34.1-24.9-22-56-45-70c-38.1-23.2-92.3,49-237,125c-67.7,35.6-115.4,51.1-116,82c-0.5,24.9,29.5,58.3,51,75
		c11.9,9.3,32.2,23.2,43,47c3.7,8.3,4.7,16.8,4.7,16.8c0.8,8.2-0.5,14.9-1.7,19.2"/>
	<path class="st0" d="M746.8,767.9c42.7,36.6,75.2,65.5,99,87c2.3,2.1,2.8,2.5,4.1,3.7c13.1,11.6,47.4,40.6,93.9,64.3
		c10.9,5.5,25.6,12.4,40,7c18.1-6.8,28.6-30.5,27-50c-1.4-16.3-10.9-26.1-23-41c-18.8-23.2-31.8-50.6-49-75
		c-80.4-113.8-105.6-147.7-140-181c-3-2.9-19-18.3-43-35c-27.8-19.4-42.7-29.8-64-32c-21.4-2.2-39,4-61,12c-26.7,9.7-29,16.5-52,22
		c-17.2,4.1-34.2,8.2-52,0c-15.6-7.1-32-23.7-33-43c0-0.2,0.1-2.3,0.1-5.1c0-2.6-0.1-4.6-0.1-5.9"/>
	<path class="st0" d="M850.8,954.9c3.2,2.8,7.9,6.5,14,10c6.2,3.5,15.2,8.7,28,10c4.2,0.4,16.9,1.5,30-5c4.7-2.4,7.5-3.8,10-7
		c7.6-10,2.6-25.3,0-33c-1.6-4.7-4.4-11.6-10-19"/>
	<path class="st0" d="M582.8,911.9c29.1,14.9,53.7,27,72,36c17.4,8.5,58.7,26.9,111,47c30.6,11.7,50.7,18.5,69,9
		c15.7-8.1,28.2-27.1,24-40c-2.6-8-10.5-9.9-32-21c-13.7-7-26.5-15.6-40-23c-43.6-24-58.4-34.3-80.7-46.2c-5.1-2.7-13-6.8-23.3-11.8
		c-13-6.2-24.1-10.8-32-14"/>
	<path class="st0" d="M414.6,934.6c20.2,12.7,117.9,73.5,207.1,97.3c31.9,8.5,52.6,8,94,7c21.5-0.5,39.9-2.5,50-16
		c6.2-8.3,7.2-18.2,7-25"/>
	<path class="st0" d="M139.8,623.9c14.8-16.6,49.8-55.6,100-51c38.9,3.6,81.8,32.9,81,61c-1.1,40.1-90.8,61.9-116,68
		c-25.8,6.3-84.3,20.5-98-2C92.6,676.7,135.2,629,139.8,623.9z"/>
	<path class="st0" d="M297.8,666.9c52.3-21.7,75-16,83.9-12c1.1,0.5,2.1,1,2.1,1c17,8.8,32.5,29.2,31,49c-2.9,37-64.4,56.9-111,72
		c-54.5,17.6-122.9,39.8-153,6c-5.6-6.3-20-25.8-11-71"/>
	<path class="st0" d="M393.8,737.9c6.8,1.8,18.8,6.1,27,17c18.2,24.1,2.1,58.6,0,63c-13,26.9-38.5,37.4-78,53
		c-56.9,22.5-91.3,36.1-112.1,18.4c-28.6-24.4-7.9-88.3-6.9-91.4"/>
	<path class="st0" d="M382.8,853.9c24.5-1.9,56,22.9,56,45c0,32-66.4,70-122,58c-43.1-9.3-76.7-47.8-71-61"/>
	<path class="st0" d="M77.3,866.4c17.2,49.9,75,196.4,230,300c192.7,128.8,394.7,96.9,438,89"/>
	<path class="st0" d="M1324.4,496.2c-17.2-49.9-75-196.4-230-300c-192.7-128.8-394.7-96.9-438-89"/>
</g>
</svg>
