<?xml version="1.0" encoding="utf-8"?>
<!-- Generator: Adobe Illustrator 25.2.1, SVG Export Plug-In . SVG Version: 6.00 Build 0)  -->
<svg version="1.1" id="Capa_1" xmlns="http://www.w3.org/2000/svg" xmlns:xlink="http://www.w3.org/1999/xlink" x="0px" y="0px"
	 viewBox="0 0 1556.4 1078.5" style="enable-background:new 0 0 1556.4 1078.5;" xml:space="preserve">
<style type="text/css">
	.st0{fill:#FFFFFF;}
</style>
<g>
	<path class="st0" d="M1461.2,230.2H92.8c-37.2,0-67.3-30.2-67.3-67.3v-51.3c0-37.2,30.2-67.3,67.3-67.3h1368.3
		c37.2,0,67.3,30.2,67.3,67.3v51.3C1528.5,200,1498.3,230.2,1461.2,230.2z"/>
</g>
<g>
	<path class="st0" d="M1462.2,642.2H93.8c-37.2,0-67.3-30.2-67.3-67.3v-51.3c0-37.2,30.2-67.3,67.3-67.3h1368.3
		c37.2,0,67.3,30.2,67.3,67.3v51.3C1529.5,612,1499.3,642.2,1462.2,642.2z"/>
</g>
<g>
	<path class="st0" d="M1461.2,1041.2H92.8c-37.2,0-67.3-30.2-67.3-67.3v-51.3c0-37.2,30.2-67.3,67.3-67.3h1368.3
		c37.2,0,67.3,30.2,67.3,67.3v51.3C1528.5,1011,1498.3,1041.2,1461.2,1041.2z"/>
</g>
</svg>
