<?xml version="1.0" encoding="utf-8"?>
<!-- Generator: Adobe Illustrator 25.2.1, SVG Export Plug-In . SVG Version: 6.00 Build 0)  -->
<svg version="1.1" id="Capa_1" xmlns="http://www.w3.org/2000/svg" xmlns:xlink="http://www.w3.org/1999/xlink" x="0px" y="0px"
	 viewBox="0 0 1332.9 875.9" style="enable-background:new 0 0 1332.9 875.9;" xml:space="preserve">
<style type="text/css">
	.st0{fill:#7272B8;}
	.st1{fill:none;stroke:#7272B8;stroke-width:20;stroke-miterlimit:10;}
</style>
<g>
	<path class="st0" d="M520.9,35.9c49.4,0,97.3,9.7,142.5,28.8c43.6,18.4,82.7,44.8,116.3,78.4c33.6,33.6,60,72.8,78.4,116.3
		c19.1,45.1,28.8,93,28.8,142.5s-9.7,97.3-28.8,142.5c-18.4,43.6-44.8,82.7-78.4,116.3c-33.6,33.6-72.8,60-116.3,78.4
		c-45.1,19.1-93,28.8-142.5,28.8s-97.3-9.7-142.5-28.8c-43.6-18.4-82.7-44.8-116.3-78.4c-33.6-33.6-60-72.8-78.4-116.3
		c-19.1-45.1-28.8-93-28.8-142.5s9.7-97.3,28.8-142.5c18.4-43.6,44.8-82.7,78.4-116.3c33.6-33.6,72.8-60,116.3-78.4
		C423.6,45.5,471.5,35.9,520.9,35.9 M520.9,15.9c-213.2,0-386,172.8-386,386s172.8,386,386,386s386-172.8,386-386
		S734.1,15.9,520.9,15.9L520.9,15.9z"/>
</g>
<path class="st1" d="M18.1,525.9C26.8,570,51.9,666,132.6,753.4c53.7,58.1,111.4,90,149,107"/>
<path class="st1" d="M641.1,652.9L502.6,456.4c-1.5-2.8-3-5.7-4.5-8.5c1.6-92.3,3.2-184.7,4.8-277"/>
<line class="st1" x1="714" y1="760.9" x2="1318" y2="760.9"/>
<line class="st1" x1="821.5" y1="688.9" x2="1210.5" y2="688.9"/>
<line class="st1" x1="878" y1="609.9" x2="1154" y2="609.9"/>
</svg>
