<?xml version="1.0" encoding="utf-8"?>
<!-- Generator: Adobe Illustrator 25.2.1, SVG Export Plug-In . SVG Version: 6.00 Build 0)  -->
<svg version="1.1" id="Capa_1" xmlns="http://www.w3.org/2000/svg" xmlns:xlink="http://www.w3.org/1999/xlink" x="0px" y="0px"
	 viewBox="0 0 1744 1695" style="enable-background:new 0 0 1744 1695;" xml:space="preserve">
<style type="text/css">
	.st0{fill:#666666;}
	.st1{fill:none;stroke:#333399;stroke-width:25;stroke-miterlimit:10;}
</style>
<g>
	<path class="st0" d="M1304,875c52.1,0,102.7,10.2,150.2,30.3c46,19.4,87.2,47.3,122.7,82.7c35.5,35.5,63.3,76.7,82.7,122.7
		c20.1,47.6,30.3,98.1,30.3,150.2s-10.2,102.7-30.3,150.2c-19.4,46-47.3,87.2-82.7,122.7c-35.5,35.5-76.7,63.3-122.7,82.7
		c-47.6,20.1-98.1,30.3-150.2,30.3s-102.7-10.2-150.2-30.3c-46-19.4-87.2-47.3-122.7-82.7c-35.5-35.5-63.3-76.7-82.7-122.7
		c-20.1-47.6-30.3-98.1-30.3-150.2s10.2-102.7,30.3-150.2c19.4-46,47.3-87.2,82.7-122.7c35.5-35.5,76.7-63.3,122.7-82.7
		C1201.3,885.2,1251.9,875,1304,875 M1304,855c-224.2,0-406,181.8-406,406s181.8,406,406,406s406-181.8,406-406S1528.2,855,1304,855
		L1304,855z"/>
</g>
<g>
	<path class="st0" d="M424,40c52.1,0,102.7,10.2,150.2,30.3c46,19.4,87.2,47.3,122.7,82.7s63.3,76.7,82.7,122.7
		C799.8,323.3,810,373.9,810,426s-10.2,102.7-30.3,150.2c-19.4,46-47.3,87.2-82.7,122.7s-76.7,63.3-122.7,82.7
		C526.7,801.8,476.1,812,424,812s-102.7-10.2-150.2-30.3c-46-19.4-87.2-47.3-122.7-82.7s-63.3-76.7-82.7-122.7
		C48.2,528.7,38,478.1,38,426s10.2-102.7,30.3-150.2c19.4-46,47.3-87.2,82.7-122.7s76.7-63.3,122.7-82.7C321.3,50.2,371.9,40,424,40
		 M424,20C199.8,20,18,201.8,18,426s181.8,406,406,406s406-181.8,406-406S648.2,20,424,20L424,20z"/>
</g>
<path class="st1" d="M862,80c320,41.7,567.7,228.1,623,467c12.4,53.4,25.1,152.6-19,282"/>
<path class="st1" d="M1313,540c24.4,37,57.2,91.3,88,161c37,83.5,40,118.7,65,128c32.9,12.2,96.9-22.9,233-224"/>
<path class="st1" d="M898.3,1654.2c-320-41.7-567.7-228.1-623-467c-12.4-53.4-25.1-152.6,19-282"/>
<path class="st1" d="M447.3,1194.2c-24.4-37-57.2-91.3-88-161c-37-83.5-40-118.7-65-128c-32.9-12.2-96.9,22.9-233,224"/>
<path class="st1" d="M1457,1060c-19.7-14.3-77.3-52.1-152-45c-130.8,12.5-188.1,150.6-193,163c-45.7,115.3-15.3,284.7,107,344
	c104.4,50.6,216.1-7.9,231-16"/>
<path class="st1" d="M1013,1214c76,1,152,2,228,3"/>
<path class="st1" d="M550,251c-43.9-61.1-114-94.2-182-84c-67.7,10.1-143.2,64.7-144,132c-0.6,48.7,38.1,83.8,44,89
	c29.8,26.3,63.6,30.9,130,39c89.1,10.9,105-3,138,17c35.1,21.3,62.3,64.3,62,111c-0.4,54.9-38.6,90.4-50,101
	c-55.2,51.3-151.5,67.9-219,22c-37.9-25.8-54.4-62.8-61-81"/>
<path class="st1" d="M399.8,102.6c0.4,215.6,0.9,431.1,1.3,646.7"/>
<path class="st1" d="M1030.5,1338.7c76,1,152,2,228,3"/>
</svg>
