<?xml version="1.0" encoding="utf-8"?>
<!-- Generator: Adobe Illustrator 25.2.1, SVG Export Plug-In . SVG Version: 6.00 Build 0)  -->
<svg version="1.1" id="Capa_1" xmlns="http://www.w3.org/2000/svg" xmlns:xlink="http://www.w3.org/1999/xlink" x="0px" y="0px"
	 viewBox="0 0 1574.5 998.9" style="enable-background:new 0 0 1574.5 998.9;" xml:space="preserve">
<style type="text/css">
	.st0{fill:none;stroke:#7272B8;stroke-width:40;stroke-miterlimit:10;}
</style>
<path class="st0" d="M71.6,234.4c2.3,58,4.7,116,7,174c309.3,2.3,618.7,4.7,928,7c109.3,1.7,218.7,3.3,328,5
	c-131.3-119.3-262.7-238.7-394-358l10,179C657.6,239.1,364.6,236.7,71.6,234.4z"/>
<path class="st0" d="M1499.1,756.7c-2.3-58-4.7-116-7-174c-309.3-2.3-618.7-4.7-928-7c-109.3-1.7-218.7-3.3-328-5
	c131.3,119.3,262.7,238.7,394,358l-10-179C913.1,752,1206.1,754.3,1499.1,756.7z"/>
</svg>
